<?xml version="1.0" encoding="UTF-8" standalone="no"?>
<!-- Created with Inkscape (http://www.inkscape.org/) -->

<svg
   xmlns:dc="http://purl.org/dc/elements/1.1/"
   xmlns:cc="http://creativecommons.org/ns#"
   xmlns:rdf="http://www.w3.org/1999/02/22-rdf-syntax-ns#"
   xmlns:svg="http://www.w3.org/2000/svg"
   xmlns="http://www.w3.org/2000/svg"
   xmlns:sodipodi="http://sodipodi.sourceforge.net/DTD/sodipodi-0.dtd"
   xmlns:inkscape="http://www.inkscape.org/namespaces/inkscape"
   width="16"
   height="16"
   id="svg2"
   version="1.1"
   inkscape:version="0.48.3.1 r9886"
   inkscape:export-filename="/home/dan/Desktop/famitracker_assets/2a03_16.png"
   inkscape:export-xdpi="90"
   inkscape:export-ydpi="90"
   sodipodi:docname="2a03.svg">
  <defs
     id="defs4" />
  <sodipodi:namedview
     id="base"
     pagecolor="#000000"
     bordercolor="#666666"
     borderopacity="1.0"
     inkscape:pageopacity="0"
     inkscape:pageshadow="2"
     inkscape:zoom="22.627417"
     inkscape:cx="-0.229393"
     inkscape:cy="10.822412"
     inkscape:document-units="px"
     inkscape:current-layer="layer1"
     showgrid="true"
     inkscape:window-width="1631"
     inkscape:window-height="1026"
     inkscape:window-x="49"
     inkscape:window-y="24"
     inkscape:window-maximized="1">
    <inkscape:grid
       type="xygrid"
       id="grid2993"
       empspacing="4"
       visible="true"
       enabled="true"
       snapvisiblegridlinesonly="true" />
  </sodipodi:namedview>
  <metadata
     id="metadata7">
    <rdf:RDF>
      <cc:Work
         rdf:about="">
        <dc:format>image/svg+xml</dc:format>
        <dc:type
           rdf:resource="http://purl.org/dc/dcmitype/StillImage" />
        <dc:title />
      </cc:Work>
    </rdf:RDF>
  </metadata>
  <g
     inkscape:groupmode="layer"
     id="layer2"
     inkscape:label="black"
     style="display:none">
    <rect
       style="fill:#000000;fill-opacity:1;fill-rule:nonzero;stroke:none"
       id="rect3021"
       width="16"
       height="16"
       x="-1.3322676e-15"
       y="-1.0658141e-15" />
  </g>
  <g
     style="display:inline"
     transform="translate(0,-1036.3622)"
     id="g2993"
     inkscape:groupmode="layer"
     inkscape:label="text copy">
    <g
       transform="scale(0.96573308,1.0354828)"
       style="font-size:7.94907379px;font-style:normal;font-weight:bold;line-height:125%;letter-spacing:0px;word-spacing:0px;fill:#000000;fill-opacity:1;stroke:none;font-family:Sans;-inkscape-font-specification:Sans Bold"
       id="text2996" />
    <g
       transform="scale(0.98766653,1.0124875)"
       style="font-size:7.77254581px;font-style:normal;font-weight:bold;line-height:125%;letter-spacing:0px;word-spacing:0px;fill:#000000;fill-opacity:1;stroke:none;display:inline;font-family:Sans;-inkscape-font-specification:Sans Bold"
       id="text3000">
      <path
         sodipodi:type="inkscape:offset"
         inkscape:radius="1"
         inkscape:original="M 4.96875 1025.4375 C 4.6600724 1025.4375 4.3525741 1025.4713 4.03125 1025.5312 C 3.7099228 1025.5895 3.3914153 1025.6988 3.0625 1025.8125 L 3.0625 1027.0938 C 3.3711743 1026.8928 3.6355254 1026.7565 3.90625 1026.6562 C 4.1769717 1026.5525 4.4285366 1026.5 4.65625 1026.5 C 4.9522721 1026.5 5.1978884 1026.5806 5.375 1026.75 C 5.5546354 1026.9193 5.6562468 1027.1283 5.65625 1027.4062 C 5.6562468 1027.5863 5.619801 1027.7708 5.53125 1027.9375 C 5.4426925 1028.1042 5.2784464 1028.2628 5.09375 1028.4375 L 3.03125 1030.3438 L 3.03125 1031.4688 L 7.15625 1031.4688 L 7.15625 1030.3438 L 4.65625 1030.3438 L 5.875 1029.25 C 6.3860815 1028.7816 6.7155978 1028.4028 6.875 1028.125 C 7.0343929 1027.8444 7.1249953 1027.5415 7.125 1027.2188 C 7.1249953 1026.6605 6.9394842 1026.2185 6.5625 1025.9062 C 6.1880376 1025.5939 5.6468204 1025.4375 4.96875 1025.4375 z M 9.96875 1025.5625 L 7.875 1031.4688 L 9.34375 1031.4688 L 9.6875 1030.4062 L 11.96875 1030.4062 L 12.34375 1031.4688 L 13.8125 1031.4688 L 11.71875 1025.5625 L 9.96875 1025.5625 z M 10.84375 1026.9375 L 11.625 1029.3125 L 10.0625 1029.3125 L 10.84375 1026.9375 z M 6.125 1032.5 C 5.378611 1032.5 4.7798187 1032.7389 4.375 1033.25 C 3.9701793 1033.7585 3.7812496 1034.4963 3.78125 1035.4375 C 3.7812496 1036.3762 3.9701793 1037.114 4.375 1037.625 C 4.7798187 1038.1336 5.378611 1038.375 6.125 1038.375 C 6.8688535 1038.375 7.4389258 1038.1336 7.84375 1037.625 C 8.2485652 1037.114 8.437495 1036.3762 8.4375 1035.4375 C 8.437495 1034.4963 8.2485652 1033.7585 7.84375 1033.25 C 7.4389258 1032.7389 6.8688535 1032.5 6.125 1032.5 z M 11.25 1032.5 C 10.976745 1032.5 10.720872 1032.5215 10.4375 1032.5625 C 10.154125 1032.6029 9.8509332 1032.669 9.5625 1032.75 L 9.5625 1033.8125 C 9.8003308 1033.7087 10.040887 1033.6155 10.28125 1033.5625 C 10.52161 1033.5085 10.764697 1033.5 11 1033.5 C 11.318794 1033.5 11.575419 1033.5686 11.75 1033.6875 C 11.924578 1033.8065 11.999997 1033.9699 12 1034.1875 C 11.999997 1034.4228 11.898386 1034.6023 11.71875 1034.7188 C 11.539108 1034.8326 11.273116 1034.875 10.90625 1034.875 L 10.3125 1034.875 L 10.3125 1035.8125 L 10.875 1035.8125 C 11.287408 1035.8125 11.602497 1035.8972 11.8125 1036.0312 C 12.025027 1036.1627 12.124996 1036.3357 12.125 1036.5938 C 12.124996 1036.8443 12.019967 1037.0534 11.8125 1037.1875 C 11.607557 1037.3216 11.324607 1037.375 10.9375 1037.375 C 10.676895 1037.375 10.395721 1037.3492 10.125 1037.2812 C 9.8568052 1037.2103 9.5857528 1037.1054 9.3125 1036.9688 L 9.3125 1038.0938 C 9.5984034 1038.1874 9.8965347 1038.2665 10.1875 1038.3125 C 10.480993 1038.3605 10.771533 1038.375 11.0625 1038.375 C 11.887318 1038.375 12.507375 1038.2285 12.9375 1037.9375 C 13.367617 1037.644 13.593745 1037.2178 13.59375 1036.6562 C 13.593745 1036.2793 13.512376 1035.9616 13.3125 1035.7188 C 13.115146 1035.4733 12.819545 1035.3177 12.4375 1035.2188 C 12.779063 1035.1327 13.012917 1034.9913 13.1875 1034.7812 C 13.362078 1034.5686 13.468745 1034.2689 13.46875 1033.9375 C 13.468745 1033.4517 13.273114 1033.1153 12.90625 1032.875 C 12.541908 1032.6321 11.986264 1032.5 11.25 1032.5 z M 6.125 1033.5 C 6.4387326 1033.5 6.6496802 1033.6465 6.78125 1033.9375 C 6.915343 1034.2259 6.9687464 1034.7291 6.96875 1035.4375 C 6.9687464 1036.1535 6.9153431 1036.644 6.78125 1036.9375 C 6.6471501 1037.231 6.4362025 1037.375 6.125 1037.375 C 5.8112621 1037.375 5.5715945 1037.231 5.4375 1036.9375 C 5.303401 1036.644 5.2499982 1036.1535 5.25 1035.4375 C 5.2499982 1034.7291 5.3034014 1034.2259 5.4375 1033.9375 C 5.5715945 1033.6465 5.8112621 1033.5 6.125 1033.5 z "
         id="path3783"
         d="m 4.96875,1025.4375 c -0.3086776,0 -0.6161759,0.034 -0.9375,0.094 -0.3213272,0.058 -0.6398347,0.1676 -0.96875,0.2813 l 0,1.2813 c 0.3086743,-0.201 0.5730254,-0.3373 0.84375,-0.4376 0.2707217,-0.1037 0.5222866,-0.1562 0.75,-0.1562 0.2960221,0 0.5416384,0.081 0.71875,0.25 0.1796354,0.1693 0.2812468,0.3783 0.28125,0.6562 -3.2e-6,0.1801 -0.036449,0.3646 -0.125,0.5313 -0.088558,0.1667 -0.2528036,0.3253 -0.4375,0.5 l -2.0625,1.9063 0,1.125 4.125,0 0,-1.125 -2.5,0 1.21875,-1.0938 c 0.5110815,-0.4684 0.8405978,-0.8472 1,-1.125 0.1593929,-0.2806 0.2499953,-0.5835 0.25,-0.9062 -4.7e-6,-0.5583 -0.1855158,-1.0003 -0.5625,-1.3126 -0.3744624,-0.3123 -0.9156796,-0.4687 -1.59375,-0.4687 z m 5,0.125 -2.09375,5.9063 1.46875,0 0.34375,-1.0626 2.28125,0 0.375,1.0626 1.46875,0 -2.09375,-5.9063 -1.75,0 z m 0.875,1.375 0.78125,2.375 -1.5625,0 0.78125,-2.375 z M 6.125,1032.5 c -0.746389,0 -1.3451813,0.2389 -1.75,0.75 -0.4048207,0.5085 -0.5937504,1.2463 -0.59375,2.1875 -4e-7,0.9387 0.1889293,1.6765 0.59375,2.1875 0.4048187,0.5086 1.003611,0.75 1.75,0.75 0.7438535,0 1.3139258,-0.2414 1.71875,-0.75 0.4048152,-0.511 0.593745,-1.2488 0.59375,-2.1875 -5e-6,-0.9412 -0.1889348,-1.679 -0.59375,-2.1875 -0.4048242,-0.5111 -0.9748965,-0.75 -1.71875,-0.75 z m 5.125,0 c -0.273255,0 -0.529128,0.022 -0.8125,0.062 -0.283375,0.04 -0.5865668,0.1065 -0.875,0.1875 l 0,1.0625 c 0.2378308,-0.1038 0.478387,-0.197 0.71875,-0.25 0.24036,-0.054 0.483447,-0.062 0.71875,-0.062 0.318794,0 0.575419,0.069 0.75,0.1875 0.174578,0.119 0.249997,0.2824 0.25,0.5 -3e-6,0.2353 -0.101614,0.4148 -0.28125,0.5313 -0.179642,0.1138 -0.445634,0.1562 -0.8125,0.1562 l -0.59375,0 0,0.9375 0.5625,0 c 0.412408,0 0.727497,0.085 0.9375,0.2187 0.212527,0.1315 0.312496,0.3045 0.3125,0.5626 -4e-6,0.2505 -0.105033,0.4596 -0.3125,0.5937 -0.204943,0.1341 -0.487893,0.1875 -0.875,0.1875 -0.260605,0 -0.541779,-0.026 -0.8125,-0.094 -0.2681948,-0.071 -0.5392472,-0.1758 -0.8125,-0.3124 l 0,1.125 c 0.2859034,0.094 0.5840347,0.1727 0.875,0.2187 0.293493,0.048 0.584033,0.062 0.875,0.062 0.824818,0 1.444875,-0.1465 1.875,-0.4375 0.430117,-0.2935 0.656245,-0.7197 0.65625,-1.2813 -5e-6,-0.3769 -0.08137,-0.6946 -0.28125,-0.9374 -0.197354,-0.2455 -0.492955,-0.4011 -0.875,-0.5 0.341563,-0.086 0.575417,-0.2275 0.75,-0.4376 0.174578,-0.2126 0.281245,-0.5123 0.28125,-0.8437 -5e-6,-0.4858 -0.195636,-0.8222 -0.5625,-1.0625 -0.364342,-0.2429 -0.919986,-0.375 -1.65625,-0.375 z m -5.125,1 c 0.3137326,0 0.5246802,0.1465 0.65625,0.4375 0.134093,0.2884 0.1874964,0.7916 0.1875,1.5 -3.6e-6,0.716 -0.053407,1.2065 -0.1875,1.5 -0.1340999,0.2935 -0.3450475,0.4375 -0.65625,0.4375 -0.3137379,0 -0.5534055,-0.144 -0.6875,-0.4375 -0.134099,-0.2935 -0.1875018,-0.784 -0.1875,-1.5 -1.8e-6,-0.7084 0.053401,-1.2116 0.1875,-1.5 0.1340945,-0.291 0.3737621,-0.4375 0.6875,-0.4375 z" />
    </g>
  </g>
  <g
     inkscape:label="text"
     inkscape:groupmode="layer"
     id="layer1"
     transform="translate(0,-1036.3622)"
     style="display:inline">
    <text
       xml:space="preserve"
       style="font-size:7.94907379px;font-style:normal;font-weight:bold;line-height:125%;letter-spacing:0px;word-spacing:0px;fill:#ffffff;fill-opacity:1;stroke:none;font-family:Sans;-inkscape-font-specification:Sans Bold"
       x="2.4776642"
       y="1008.5751"
       id="text2995"
       sodipodi:linespacing="125%"
       transform="scale(0.96573308,1.0354828)"><tspan
         sodipodi:role="line"
         x="2.4776642"
         y="1008.5751"
         id="tspan3204"
         style="-inkscape-font-specification:DejaVu Sans Bold;font-family:DejaVu Sans;font-weight:bold;font-style:normal;font-stretch:normal;font-variant:normal">2A</tspan></text>
    <text
       xml:space="preserve"
       style="font-size:7.77254581px;font-style:normal;font-weight:bold;line-height:125%;letter-spacing:0px;word-spacing:0px;fill:#ffffff;fill-opacity:1;stroke:none;display:inline;font-family:Sans;-inkscape-font-specification:Sans Bold"
       x="3.4034891"
       y="1038.265"
       id="text2995-7"
       sodipodi:linespacing="125%"
       transform="scale(0.98766653,1.0124875)"><tspan
         sodipodi:role="line"
         x="3.4034891"
         y="1038.265"
         id="tspan3204-8"
         style="-inkscape-font-specification:DejaVu Sans Bold;font-family:DejaVu Sans;font-weight:bold;font-style:normal;font-stretch:normal;font-variant:normal">03</tspan></text>
  </g>
</svg>
