<?xml version="1.0" encoding="UTF-8" standalone="no"?>
<!-- Created with Inkscape (http://www.inkscape.org/) -->

<svg
   xmlns:dc="http://purl.org/dc/elements/1.1/"
   xmlns:cc="http://creativecommons.org/ns#"
   xmlns:rdf="http://www.w3.org/1999/02/22-rdf-syntax-ns#"
   xmlns:svg="http://www.w3.org/2000/svg"
   xmlns="http://www.w3.org/2000/svg"
   xmlns:sodipodi="http://sodipodi.sourceforge.net/DTD/sodipodi-0.dtd"
   xmlns:inkscape="http://www.inkscape.org/namespaces/inkscape"
   width="16"
   height="16"
   id="svg2"
   version="1.1"
   inkscape:version="0.48.3.1 r9886"
   inkscape:export-filename="/home/dan/Desktop/famitracker_assets/fds_16.png"
   inkscape:export-xdpi="90"
   inkscape:export-ydpi="90"
   sodipodi:docname="fds.svg">
  <defs
     id="defs4" />
  <sodipodi:namedview
     id="base"
     pagecolor="#000000"
     bordercolor="#666666"
     borderopacity="1.0"
     inkscape:pageopacity="0"
     inkscape:pageshadow="2"
     inkscape:zoom="5.6568543"
     inkscape:cx="-12.49562"
     inkscape:cy="12.763947"
     inkscape:document-units="px"
     inkscape:current-layer="layer1"
     showgrid="true"
     inkscape:window-width="727"
     inkscape:window-height="592"
     inkscape:window-x="621"
     inkscape:window-y="217"
     inkscape:window-maximized="0">
    <inkscape:grid
       type="xygrid"
       id="grid2993"
       empspacing="4"
       visible="true"
       enabled="true"
       snapvisiblegridlinesonly="true" />
  </sodipodi:namedview>
  <metadata
     id="metadata7">
    <rdf:RDF>
      <cc:Work
         rdf:about="">
        <dc:format>image/svg+xml</dc:format>
        <dc:type
           rdf:resource="http://purl.org/dc/dcmitype/StillImage" />
        <dc:title />
      </cc:Work>
    </rdf:RDF>
  </metadata>
  <g
     inkscape:groupmode="layer"
     id="layer2"
     inkscape:label="black"
     style="display:none">
    <rect
       style="fill:#000000;fill-opacity:1;fill-rule:nonzero;stroke:none"
       id="rect3021"
       width="16"
       height="16"
       x="-1.3322676e-15"
       y="-1.0658141e-15" />
  </g>
  <g
     style="display:inline"
     transform="translate(0,-1036.3622)"
     id="g3105"
     inkscape:groupmode="layer"
     inkscape:label="text copy">
    <g
       transform="scale(0.8753985,1.1423369)"
       style="font-size:7.21375561px;font-style:normal;font-weight:bold;line-height:125%;letter-spacing:0px;word-spacing:0px;fill:#000000;fill-opacity:1;stroke:none;font-family:Sans;-inkscape-font-specification:Sans Bold"
       id="text3107">
      <path
         sodipodi:type="inkscape:offset"
         inkscape:radius="1"
         inkscape:original="M 14.34375 911.53125 C 13.713506 911.53125 13.242377 911.6574 12.90625 911.9375 C 12.57012 912.21761 12.375 912.63572 12.375 913.15625 C 12.375 913.57175 12.509573 913.87991 12.75 914.125 C 12.992758 914.3701 13.383382 914.57546 13.90625 914.6875 L 14.40625 914.78125 C 14.723702 914.85128 14.957456 914.94255 15.0625 915.03125 C 15.169872 915.11995 15.218746 915.24285 15.21875 915.40625 C 15.218746 915.58832 15.12514 915.7145 14.96875 915.8125 C 14.812353 915.91055 14.60661 915.96875 14.3125 915.96875 C 14.023054 915.96875 13.719034 915.93245 13.40625 915.84375 C 13.095796 915.75272 12.771294 915.6149 12.4375 915.4375 L 12.4375 916.5625 C 12.771294 916.68622 13.103704 916.78075 13.4375 916.84375 C 13.771293 916.90675 14.106037 916.9375 14.4375 916.9375 C 15.1401 916.9375 15.659198 916.81135 16 916.53125 C 16.343127 916.24881 16.499996 915.82656 16.5 915.25 C 16.499996 914.81117 16.40134 914.45685 16.15625 914.21875 C 15.911152 913.98066 15.48747 913.80421 14.90625 913.6875 L 14.34375 913.59375 C 14.070643 913.53774 13.855039 913.452 13.75 913.375 C 13.647291 913.29564 13.624998 913.20256 13.625 913.0625 C 13.624998 912.87577 13.689689 912.7137 13.84375 912.625 C 13.997807 912.53635 14.240374 912.50001 14.5625 912.5 C 14.805257 912.5 15.070642 912.52845 15.34375 912.59375 C 15.616851 912.65911 15.869136 912.77787 16.15625 912.90625 L 16.15625 911.78125 C 15.831789 911.69488 15.522196 911.63575 15.21875 911.59375 C 14.915297 911.54945 14.630857 911.53125 14.34375 911.53125 z M 2.21875 911.625 L 2.21875 916.84375 L 3.5625 916.84375 L 3.5625 914.625 L 5.71875 914.625 L 5.71875 913.625 L 3.5625 913.625 L 3.5625 912.65625 L 5.875 912.65625 L 5.875 911.625 L 2.21875 911.625 z M 6.84375 911.625 L 6.84375 916.84375 L 8.28125 916.84375 C 9.0655481 916.84375 9.6390957 916.79955 10.03125 916.6875 C 10.423396 916.57313 10.782388 916.36452 11.0625 916.09375 C 11.307589 915.858 11.474699 915.58937 11.59375 915.28125 C 11.712789 914.9708 11.781244 914.61324 11.78125 914.21875 C 11.781244 913.82894 11.71279 913.49562 11.59375 913.1875 C 11.474699 912.87939 11.307589 912.61076 11.0625 912.375 C 10.784722 912.10423 10.452312 911.8933 10.0625 911.78125 C 9.6750148 911.66688 9.074885 911.62501 8.28125 911.625 L 6.84375 911.625 z M 8.1875 912.65625 L 8.6875 912.65625 C 9.2407093 912.65626 9.6480521 912.79173 9.9375 913.0625 C 10.22694 913.33327 10.374996 913.70056 10.375 914.21875 C 10.374996 914.73929 10.229275 915.13315 9.9375 915.40625 C 9.6480521 915.67936 9.238375 915.84375 8.6875 915.84375 L 8.1875 915.84375 L 8.1875 912.65625 z "
         style="font-size:7.17075205px;letter-spacing:-0.27579814px;fill:#000000"
         id="path3119"
         d="m 14.34375,911.53125 c -0.630244,0 -1.101373,0.12615 -1.4375,0.40625 -0.33613,0.28011 -0.53125,0.69822 -0.53125,1.21875 0,0.4155 0.134573,0.72366 0.375,0.96875 0.242758,0.2451 0.633382,0.45046 1.15625,0.5625 l 0.5,0.0937 c 0.317452,0.07 0.551206,0.1613 0.65625,0.25 0.107372,0.0887 0.156246,0.2116 0.15625,0.375 -4e-6,0.18207 -0.09361,0.30825 -0.25,0.40625 -0.156397,0.098 -0.36214,0.15625 -0.65625,0.15625 -0.289446,0 -0.593466,-0.0363 -0.90625,-0.125 -0.310454,-0.091 -0.634956,-0.22885 -0.96875,-0.40625 l 0,1.125 c 0.333794,0.12372 0.666204,0.21825 1,0.28125 0.333793,0.063 0.668537,0.0937 1,0.0937 0.7026,0 1.221698,-0.12615 1.5625,-0.40625 0.343127,-0.28244 0.499996,-0.70469 0.5,-1.28125 -4e-6,-0.43883 -0.09866,-0.79315 -0.34375,-1.03125 -0.245098,-0.23809 -0.66878,-0.41454 -1.25,-0.53125 l -0.5625,-0.0937 c -0.273107,-0.056 -0.488711,-0.14175 -0.59375,-0.21875 -0.102709,-0.0794 -0.125002,-0.17244 -0.125,-0.3125 -2e-6,-0.18673 0.06469,-0.3488 0.21875,-0.4375 0.154057,-0.0887 0.396624,-0.12499 0.71875,-0.125 0.242757,0 0.508142,0.0285 0.78125,0.0937 0.273101,0.0654 0.525386,0.18412 0.8125,0.3125 l 0,-1.125 c -0.324461,-0.0864 -0.634054,-0.1455 -0.9375,-0.1875 -0.303453,-0.0443 -0.587893,-0.0625 -0.875,-0.0625 z m -12.125,0.0937 0,5.21875 1.34375,0 0,-2.21875 2.15625,0 0,-1 -2.15625,0 0,-0.96875 2.3125,0 0,-1.03125 -3.65625,0 z m 4.625,0 0,5.21875 1.4375,0 c 0.7842981,0 1.3578457,-0.0442 1.75,-0.15625 0.392146,-0.11437 0.751138,-0.32298 1.03125,-0.59375 0.245089,-0.23575 0.412199,-0.50438 0.53125,-0.8125 0.119039,-0.31045 0.187494,-0.66801 0.1875,-1.0625 -6e-6,-0.38981 -0.06846,-0.72313 -0.1875,-1.03125 -0.119051,-0.30811 -0.286161,-0.57674 -0.53125,-0.8125 -0.277778,-0.27077 -0.610188,-0.4817 -1,-0.59375 -0.3874852,-0.11437 -0.987615,-0.15624 -1.78125,-0.15625 l -1.4375,0 z m 1.34375,1.03125 0.5,0 c 0.5532093,10e-6 0.9605521,0.13548 1.25,0.40625 0.28944,0.27077 0.437496,0.63806 0.4375,1.15625 -4e-6,0.52054 -0.145725,0.9144 -0.4375,1.1875 -0.2894479,0.27311 -0.699125,0.4375 -1.25,0.4375 l -0.5,0 0,-3.1875 z" />
    </g>
  </g>
  <g
     inkscape:label="text"
     inkscape:groupmode="layer"
     id="layer1"
     transform="translate(0,-1036.3622)"
     style="display:inline">
    <text
       xml:space="preserve"
       style="font-size:7.21375561px;font-style:normal;font-weight:bold;line-height:125%;letter-spacing:0px;word-spacing:0px;fill:#00ffff;fill-opacity:1;stroke:none;font-family:Sans;-inkscape-font-specification:Sans Bold"
       x="1.5707133"
       y="916.84961"
       id="text2995"
       sodipodi:linespacing="125%"
       transform="scale(0.8753985,1.1423369)"><tspan
         sodipodi:role="line"
         id="tspan2997"
         x="1.5707133"
         y="916.84961"
         style="font-size:7.17075204999999993px;letter-spacing:-0.27579814000000002px;word-spacing:0px;fill:#00ffff;-inkscape-font-specification:DejaVu Sans Bold;font-family:DejaVu Sans;font-weight:bold;font-style:normal;font-stretch:normal;font-variant:normal">FDS</tspan></text>
  </g>
</svg>
