<?xml version="1.0" encoding="UTF-8" standalone="no"?>
<!-- Created with Inkscape (http://www.inkscape.org/) -->

<svg
   xmlns:dc="http://purl.org/dc/elements/1.1/"
   xmlns:cc="http://creativecommons.org/ns#"
   xmlns:rdf="http://www.w3.org/1999/02/22-rdf-syntax-ns#"
   xmlns:svg="http://www.w3.org/2000/svg"
   xmlns="http://www.w3.org/2000/svg"
   xmlns:sodipodi="http://sodipodi.sourceforge.net/DTD/sodipodi-0.dtd"
   xmlns:inkscape="http://www.inkscape.org/namespaces/inkscape"
   width="16"
   height="16"
   id="svg2"
   version="1.1"
   inkscape:version="0.48.3.1 r9886"
   inkscape:export-filename="/home/dan/Desktop/famitracker_assets/vrc6_64.png"
   inkscape:export-xdpi="360"
   inkscape:export-ydpi="360"
   sodipodi:docname="vrc6.svg">
  <defs
     id="defs4" />
  <sodipodi:namedview
     id="base"
     pagecolor="#000000"
     bordercolor="#666666"
     borderopacity="1.0"
     inkscape:pageopacity="0"
     inkscape:pageshadow="2"
     inkscape:zoom="16"
     inkscape:cx="9.3306206"
     inkscape:cy="19.87134"
     inkscape:document-units="px"
     inkscape:current-layer="layer1"
     showgrid="true"
     inkscape:window-width="1280"
     inkscape:window-height="1000"
     inkscape:window-x="1680"
     inkscape:window-y="24"
     inkscape:window-maximized="1">
    <inkscape:grid
       type="xygrid"
       id="grid2993"
       empspacing="4"
       visible="true"
       enabled="true"
       snapvisiblegridlinesonly="true" />
  </sodipodi:namedview>
  <metadata
     id="metadata7">
    <rdf:RDF>
      <cc:Work
         rdf:about="">
        <dc:format>image/svg+xml</dc:format>
        <dc:type
           rdf:resource="http://purl.org/dc/dcmitype/StillImage" />
        <dc:title />
      </cc:Work>
    </rdf:RDF>
  </metadata>
  <g
     inkscape:groupmode="layer"
     id="layer2"
     inkscape:label="black"
     style="display:none">
    <rect
       style="fill:#000000;fill-opacity:1;fill-rule:nonzero;stroke:none"
       id="rect3021"
       width="16"
       height="16"
       x="-1.3322676e-15"
       y="-1.0658141e-15" />
  </g>
  <g
     style="display:inline"
     transform="translate(0,-1036.3622)"
     id="g3023"
     inkscape:groupmode="layer"
     inkscape:label="text copy">
    <g
       transform="scale(0.96573306,1.0354828)"
       style="font-size:6.53898144px;font-style:normal;font-weight:bold;line-height:125%;letter-spacing:0px;word-spacing:0px;fill:#ffff00;fill-opacity:1;stroke:none;font-family:Sans;-inkscape-font-specification:Sans Bold"
       id="text3025" />
    <g
       transform="matrix(0.96573308,0,0,1.0354828,0,1.000463)"
       style="font-size:6.53898144px;font-style:normal;font-weight:bold;line-height:125%;letter-spacing:0px;word-spacing:0px;fill:#ffff00;fill-opacity:1;stroke:none;font-family:Sans;-inkscape-font-specification:Sans Bold"
       id="text3029">
      <path
         sodipodi:type="inkscape:offset"
         inkscape:radius="1"
         inkscape:original="M 14.03125 1002.75 C 13.23729 1002.75 12.589027 1002.9615 12.125 1003.4062 C 11.66097 1003.849 11.437499 1004.4568 11.4375 1005.2188 C 11.437499 1005.9787 11.66097 1006.5865 12.125 1007.0312 C 12.589027 1007.4741 13.23729 1007.6875 14.03125 1007.6875 C 14.297319 1007.6875 14.53646 1007.6537 14.78125 1007.5938 C 15.026032 1007.5341 15.274367 1007.4607 15.5 1007.3438 L 15.5 1006.3438 C 15.272239 1006.499 15.033867 1006.6155 14.8125 1006.6875 C 14.591124 1006.7601 14.369783 1006.8125 14.125 1006.8125 C 13.686511 1006.8125 13.34492 1006.656 13.09375 1006.375 C 12.842577 1006.094 12.718748 1005.7105 12.71875 1005.2188 C 12.718748 1004.725 12.842577 1004.3435 13.09375 1004.0625 C 13.34492 1003.7815 13.686511 1003.6562 14.125 1003.6562 C 14.369783 1003.6563 14.591124 1003.678 14.8125 1003.75 C 15.033867 1003.8224 15.272239 1003.9384 15.5 1004.0938 L 15.5 1003.0938 C 15.274367 1002.9767 15.026032 1002.9037 14.78125 1002.8438 C 14.53646 1002.7847 14.297319 1002.75 14.03125 1002.75 z M 1.0625 1002.8438 L 2.8125 1007.5938 L 4.28125 1007.5938 L 6.0625 1002.8438 L 4.8125 1002.8438 L 3.5625 1006.3438 L 2.28125 1002.8438 L 1.0625 1002.8438 z M 6.6875 1002.8438 L 6.6875 1007.5938 L 7.90625 1007.5938 L 7.90625 1005.8125 L 8.25 1005.8125 C 8.4500837 1005.8125 8.6307973 1005.8505 8.75 1005.9375 C 8.871326 1006.0248 8.9766755 1006.1679 9.09375 1006.4062 L 9.6875 1007.5938 L 10.96875 1007.5938 L 10.3125 1006.25 C 10.176267 1005.9754 10.040347 1005.7591 9.90625 1005.625 C 9.7742746 1005.4887 9.6369039 1005.413 9.46875 1005.375 C 9.7752611 1005.2792 10.005118 1005.1397 10.15625 1004.9375 C 10.309507 1004.7352 10.374995 1004.4713 10.375 1004.1562 C 10.374995 1003.7008 10.23124 1003.367 9.9375 1003.1562 C 9.6458817 1002.9455 9.1904264 1002.8438 8.5625 1002.8438 L 6.6875 1002.8438 z M 7.90625 1003.7188 L 8.4375 1003.7188 C 8.695055 1003.7188 8.8580613 1003.781 8.96875 1003.875 C 9.0815616 1003.9687 9.156247 1004.1267 9.15625 1004.3438 C 9.156247 1004.5629 9.0815614 1004.7165 8.96875 1004.8125 C 8.8580613 1004.9082 8.695055 1004.9375 8.4375 1004.9375 L 7.90625 1004.9375 L 7.90625 1003.7188 z M 8.4375 1008.4375 C 7.7457113 1008.4375 7.1792921 1008.6738 6.78125 1009.125 C 6.3853345 1009.5742 6.1874996 1010.1812 6.1875 1010.9688 C 6.1874996 1011.7372 6.3803061 1012.3307 6.71875 1012.75 C 7.0593207 1013.1672 7.536833 1013.375 8.15625 1013.375 C 8.7181908 1013.375 9.1658104 1013.2441 9.5 1012.9375 C 9.8341822 1012.6289 9.9999958 1012.1983 10 1011.6875 C 9.9999958 1011.2256 9.831375 1010.879 9.53125 1010.5938 C 9.2332461 1010.3086 8.8624406 1010.1562 8.375 1010.1562 C 8.1812974 1010.1563 8.0076481 1010.1658 7.84375 1010.2188 C 7.6798479 1010.2699 7.5154843 1010.3645 7.375 1010.4688 C 7.4090556 1010.0685 7.5144051 1009.7647 7.71875 1009.5625 C 7.923091 1009.3581 8.2276327 1009.25 8.59375 1009.25 C 8.764033 1009.25 8.9461966 1009.2655 9.125 1009.3125 C 9.3037968 1009.3572 9.4852817 1009.4352 9.6875 1009.5312 L 9.6875 1008.6562 C 9.4852817 1008.5879 9.2689682 1008.534 9.0625 1008.5 C 8.8560252 1008.466 8.6567403 1008.4375 8.4375 1008.4375 z M 8.15625 1010.9375 C 8.373362 1010.9375 8.5498185 1011.0158 8.65625 1011.1562 C 8.764804 1011.2947 8.8124969 1011.5024 8.8125 1011.7812 C 8.8124969 1012.0601 8.7648043 1012.2658 8.65625 1012.4062 C 8.5498185 1012.5448 8.373362 1012.625 8.15625 1012.625 C 7.9412618 1012.625 7.7960554 1012.5447 7.6875 1012.4062 C 7.5810699 1012.2658 7.5312483 1012.0602 7.53125 1011.7812 C 7.5312483 1011.5024 7.5810695 1011.2947 7.6875 1011.1562 C 7.7960554 1011.0156 7.9412618 1010.9375 8.15625 1010.9375 z "
         id="path3064"
         d="m 14.03125,1001.8438 c -0.95252,0 -1.869412,0.2719 -2.53125,0.9062 -0.183049,0.1747 -0.276501,0.4132 -0.40625,0.625 -0.129179,-0.3723 -0.300807,-0.7048 -0.625,-0.9375 -0.5387761,-0.3893 -1.1819197,-0.5 -1.90625,-0.5 l -1.875,0 A 0.89292943,0.89292943 0 0 0 6.375,1002 a 0.89292943,0.89292943 0 0 0 -0.3125,-0.062 l -1.25,0 a 0.89292943,0.89292943 0 0 0 -0.84375,0.5937 l -0.40625,1.1563 -0.4375,-1.1563 a 0.89292943,0.89292943 0 0 0 -0.84375,-0.5937 l -1.21875,0 a 0.89292943,0.89292943 0 0 0 -0.84375,1.2187 l 1.75,4.75 A 0.89292943,0.89292943 0 0 0 2.8125,1008.5 l 1.46875,0 a 0.89292943,0.89292943 0 0 0 0.84375,-0.5938 l 0.65625,-1.75 0,1.4376 a 0.89292943,0.89292943 0 0 0 0.53125,0.8124 c -0.0549,0.053 -0.1368473,0.068 -0.1875,0.125 -0.5621709,0.6379 -0.8437505,1.5004 -0.84375,2.4376 -5e-7,0.9177 0.2570184,1.7329 0.75,2.3437 0.5072644,0.6214 1.3058983,0.9688 2.125,0.9687 0.7005945,0 1.4039427,-0.1979 1.9375,-0.6874 0.530158,-0.4896 0.812494,-1.2023 0.8125,-1.9063 -5e-6,-0.5694 -0.295748,-1.0609 -0.625,-1.4687 a 0.89292943,0.89292943 0 0 0 0.3125,-0.6876 l 0,-0.875 A 0.89292943,0.89292943 0 0 0 10.5625,1008.5 l 0.40625,0 a 0.89292943,0.89292943 0 0 0 0.84375,-0.625 c 0.62601,0.4628 1.394023,0.7188 2.21875,0.7188 0.341683,0 0.668878,-0.052 0.96875,-0.125 0.273398,-0.067 0.578568,-0.174 0.90625,-0.3438 a 0.89292943,0.89292943 0 0 0 0.5,-0.7812 l 0,-1 A 0.89292943,0.89292943 0 0 0 15,1005.5938 c -0.160021,0.109 -0.337495,0.2073 -0.46875,0.25 -0.174805,0.057 -0.288885,0.062 -0.40625,0.062 -0.226048,0 -0.282109,-0.021 -0.375,-0.125 -0.07935,-0.089 -0.125001,-0.2207 -0.125,-0.5624 -10e-7,-0.3446 0.04425,-0.4722 0.125,-0.5626 0.07101,-0.079 0.106599,-0.094 0.375,-0.094 0.192236,10e-5 0.301158,-0 0.40625,0.031 0.133548,0.044 0.309691,0.1414 0.46875,0.25 a 0.89292943,0.89292943 0 0 0 1.40625,-0.75 l 0,-1 a 0.89292943,0.89292943 0 0 0 -0.5,-0.7813 c -0.328715,-0.1706 -0.634212,-0.2772 -0.90625,-0.3437 -0.296241,-0.072 -0.625053,-0.125 -0.96875,-0.125 z m -5.875,9.875 c 0.00327,0 0.046273,0.04 0.09375,0.062 -0.039256,0.019 -0.093275,0.063 -0.09375,0.063 0.00103,0 -0.061419,-0.049 -0.09375,-0.063 0.031508,-0.013 0.092593,-0.062 0.09375,-0.062 z"
         style="fill:#000000" />
    </g>
  </g>
  <g
     inkscape:label="text"
     inkscape:groupmode="layer"
     id="layer1"
     transform="translate(0,-1036.3622)"
     style="display:inline">
    <text
       xml:space="preserve"
       style="font-size:6.53898144px;font-style:normal;font-weight:bold;line-height:125%;letter-spacing:0px;word-spacing:0px;fill:#ffff00;fill-opacity:1;stroke:none;font-family:Sans;-inkscape-font-specification:Sans Bold"
       x="1.0217896"
       y="1008.5706"
       id="text2995"
       sodipodi:linespacing="125%"
       transform="scale(0.96573308,1.0354828)"><tspan
         sodipodi:role="line"
         id="tspan2997"
         x="1.0217896"
         y="1008.5706"
         style="-inkscape-font-specification:DejaVu Sans Bold;font-family:DejaVu Sans;font-weight:bold;font-style:normal;font-stretch:normal;font-variant:normal">VRC</tspan></text>
    <text
       xml:space="preserve"
       style="font-size:6.53898144px;font-style:normal;font-weight:bold;line-height:125%;letter-spacing:0px;word-spacing:0px;fill:#ffff00;fill-opacity:1;stroke:none;font-family:Sans;-inkscape-font-specification:Sans Bold"
       x="5.7968545"
       y="1014.2622"
       id="text2995-7"
       sodipodi:linespacing="125%"
       transform="scale(0.96573308,1.0354828)"><tspan
         sodipodi:role="line"
         id="tspan2997-9"
         x="5.7968545"
         y="1014.2622"
         style="-inkscape-font-specification:DejaVu Sans Bold;font-family:DejaVu Sans;font-weight:bold;font-style:normal;font-stretch:normal;font-variant:normal">6</tspan></text>
  </g>
</svg>
