<?xml version="1.0" encoding="UTF-8" standalone="no"?>
<!-- Created with Inkscape (http://www.inkscape.org/) -->

<svg
   xmlns:dc="http://purl.org/dc/elements/1.1/"
   xmlns:cc="http://creativecommons.org/ns#"
   xmlns:rdf="http://www.w3.org/1999/02/22-rdf-syntax-ns#"
   xmlns:svg="http://www.w3.org/2000/svg"
   xmlns="http://www.w3.org/2000/svg"
   xmlns:sodipodi="http://sodipodi.sourceforge.net/DTD/sodipodi-0.dtd"
   xmlns:inkscape="http://www.inkscape.org/namespaces/inkscape"
   width="16"
   height="16"
   id="svg2"
   version="1.1"
   inkscape:version="0.48.3.1 r9886"
   inkscape:export-filename="/home/dan/Desktop/famitracker_assets/vrc7_64.png"
   inkscape:export-xdpi="360"
   inkscape:export-ydpi="360"
   sodipodi:docname="vrc7.svg">
  <defs
     id="defs4" />
  <sodipodi:namedview
     id="base"
     pagecolor="#000000"
     bordercolor="#666666"
     borderopacity="1.0"
     inkscape:pageopacity="0"
     inkscape:pageshadow="2"
     inkscape:zoom="22.627417"
     inkscape:cx="9.4835767"
     inkscape:cy="12.239837"
     inkscape:document-units="px"
     inkscape:current-layer="layer1"
     showgrid="true"
     inkscape:window-width="1631"
     inkscape:window-height="1026"
     inkscape:window-x="49"
     inkscape:window-y="24"
     inkscape:window-maximized="1">
    <inkscape:grid
       type="xygrid"
       id="grid2993"
       empspacing="4"
       visible="true"
       enabled="true"
       snapvisiblegridlinesonly="true" />
  </sodipodi:namedview>
  <metadata
     id="metadata7">
    <rdf:RDF>
      <cc:Work
         rdf:about="">
        <dc:format>image/svg+xml</dc:format>
        <dc:type
           rdf:resource="http://purl.org/dc/dcmitype/StillImage" />
        <dc:title />
      </cc:Work>
    </rdf:RDF>
  </metadata>
  <g
     inkscape:groupmode="layer"
     id="layer2"
     inkscape:label="black"
     style="display:none">
    <rect
       style="fill:#000000;fill-opacity:1;fill-rule:nonzero;stroke:none"
       id="rect3021"
       width="16"
       height="16"
       x="-1.3322676e-15"
       y="-1.0658141e-15" />
  </g>
  <g
     style="display:inline"
     transform="translate(0,-1036.3622)"
     id="g3162"
     inkscape:groupmode="layer"
     inkscape:label="text copy">
    <g
       transform="scale(0.96573308,1.0354828)"
       style="font-size:6.53898144px;font-style:normal;font-weight:bold;line-height:125%;letter-spacing:0px;word-spacing:0px;fill:#ff0000;fill-opacity:1;stroke:none;font-family:Sans;-inkscape-font-specification:Sans Bold"
       id="text3164" />
    <g
       transform="scale(0.96573308,1.0354828)"
       style="font-size:6.53898144px;font-style:normal;font-weight:bold;line-height:125%;letter-spacing:0px;word-spacing:0px;fill:#ff0000;fill-opacity:1;stroke:none;font-family:Sans;-inkscape-font-specification:Sans Bold"
       id="text3168">
      <path
         sodipodi:type="inkscape:offset"
         inkscape:radius="1"
         inkscape:original="M 14.03125 1003.7188 C 13.23729 1003.7187 12.589027 1003.9301 12.125 1004.375 C 11.66097 1004.8177 11.437499 1005.4255 11.4375 1006.1875 C 11.437499 1006.9474 11.66097 1007.5551 12.125 1008 C 12.589027 1008.4427 13.23729 1008.6562 14.03125 1008.6562 C 14.297319 1008.6562 14.53646 1008.6225 14.78125 1008.5625 C 15.026032 1008.5029 15.274367 1008.4296 15.5 1008.3125 L 15.5 1007.3125 C 15.272239 1007.4679 15.033867 1007.5842 14.8125 1007.6562 C 14.591124 1007.7289 14.369783 1007.7812 14.125 1007.7812 C 13.686511 1007.7812 13.34492 1007.6247 13.09375 1007.3438 C 12.842577 1007.0629 12.718748 1006.6792 12.71875 1006.1875 C 12.718748 1005.6937 12.842577 1005.3122 13.09375 1005.0312 C 13.34492 1004.7504 13.686511 1004.5938 14.125 1004.5938 C 14.369783 1004.5938 14.591124 1004.6467 14.8125 1004.7188 C 15.033867 1004.7911 15.272239 1004.9071 15.5 1005.0625 L 15.5 1004.0625 C 15.274367 1003.9454 15.026032 1003.8725 14.78125 1003.8125 C 14.53646 1003.7535 14.297319 1003.7188 14.03125 1003.7188 z M 1.0625 1003.8125 L 2.8125 1008.5625 L 4.28125 1008.5625 L 6.0625 1003.8125 L 4.8125 1003.8125 L 3.5625 1007.3125 L 2.28125 1003.8125 L 1.0625 1003.8125 z M 6.6875 1003.8125 L 6.6875 1008.5625 L 7.90625 1008.5625 L 7.90625 1006.7812 L 8.25 1006.7812 C 8.4500837 1006.7812 8.6307973 1006.8193 8.75 1006.9062 C 8.871326 1006.9934 8.9766755 1007.1366 9.09375 1007.375 L 9.6875 1008.5625 L 10.96875 1008.5625 L 10.3125 1007.2188 C 10.176267 1006.9443 10.040346 1006.7278 9.90625 1006.5938 C 9.7742746 1006.4575 9.6369039 1006.3818 9.46875 1006.3438 C 9.7752611 1006.248 10.005118 1006.1084 10.15625 1005.9062 C 10.309507 1005.7041 10.374995 1005.4401 10.375 1005.125 C 10.374995 1004.6695 10.231239 1004.3357 9.9375 1004.125 C 9.6458817 1003.9142 9.1904264 1003.8125 8.5625 1003.8125 L 6.6875 1003.8125 z M 7.90625 1004.6875 L 8.4375 1004.6875 C 8.695055 1004.6875 8.8580613 1004.7497 8.96875 1004.8438 C 9.0815616 1004.9374 9.156247 1005.0954 9.15625 1005.3125 C 9.156247 1005.5318 9.0815614 1005.6852 8.96875 1005.7812 C 8.8580613 1005.8768 8.695055 1005.9063 8.4375 1005.9062 L 7.90625 1005.9062 L 7.90625 1004.6875 z M 6.21875 1009.5 L 6.21875 1010.4062 L 8.53125 1010.4062 L 6.78125 1014.25 L 7.96875 1014.25 L 9.8125 1010.1875 L 9.8125 1009.5 L 6.21875 1009.5 z "
         style="fill:#000000"
         id="path3183"
         d="m 14.03125,1002.7188 c -0.971535,-2e-4 -1.908108,0.2801 -2.59375,0.9374 -0.128076,0.1222 -0.17855,0.2969 -0.28125,0.4376 -0.141791,-0.3092 -0.344624,-0.5802 -0.625,-0.7813 -0.5684952,-0.4109 -1.2328492,-0.5 -1.96875,-0.5 l -1.875,0 a 1.0001,1.0001 0 0 0 -0.3125,0.062 1.0001,1.0001 0 0 0 -0.3125,-0.062 l -1.25,0 a 1.0001,1.0001 0 0 0 -0.9375,0.6563 l -0.3125,0.9062 -0.34375,-0.9062 a 1.0001,1.0001 0 0 0 -0.9375,-0.6563 l -1.21875,0 a 1.0001,1.0001 0 0 0 -0.9375,1.3437 l 1.75,4.75 a 1.0001,1.0001 0 0 0 0.9375,0.6563 l 1.46875,0 a 1.0001,1.0001 0 0 0 0.9375,-0.6563 l 0.46875,-1.25 0,0.9063 a 1.0001,1.0001 0 0 0 0,0.094 1.0001,1.0001 0 0 0 -0.46875,0.8438 l 0,0.9062 a 1.0001,1.0001 0 0 0 1,1 l 0.78125,0 -1.125,2.4376 a 1.0001,1.0001 0 0 0 0.90625,1.4062 l 1.1875,0 a 1.0001,1.0001 0 0 0 0.90625,-0.5938 l 1.84375,-4.0624 a 1.0001,1.0001 0 0 0 0.09375,-0.4063 l 0,-0.625 0.15625,0 A 1.0001,1.0001 0 0 0 11.875,1009 c 0.627426,0.4197 1.365285,0.6562 2.15625,0.6562 0.350508,0 0.693041,-0.05 1,-0.125 0.276845,-0.067 0.597033,-0.167 0.9375,-0.3437 a 1.0001,1.0001 0 0 0 0.53125,-0.875 l 0,-1 A 1.0001,1.0001 0 0 0 14.9375,1006.5 c -0.151308,0.1032 -0.316542,0.1794 -0.4375,0.2188 -0.16872,0.055 -0.272656,0.062 -0.375,0.062 -0.200551,0 -0.207354,-0.011 -0.28125,-0.094 -0.05842,-0.065 -0.125001,-0.1762 -0.125,-0.5 -10e-7,-0.3266 0.0647,-0.4325 0.125,-0.5 0.07398,-0.083 0.08085,-0.094 0.28125,-0.094 0.10071,0 0.2033,0.01 0.375,0.062 0.12269,0.04 0.286687,0.1159 0.4375,0.2188 a 1.0001,1.0001 0 0 0 1.5625,-0.8125 l 0,-1 a 1.0001,1.0001 0 0 0 -0.53125,-0.875 c -0.341293,-0.1771 -0.662702,-0.2764 -0.9375,-0.3437 a 1.0001,1.0001 0 0 0 -0.03125,0 c -0.302188,-0.073 -0.615736,-0.1251 -0.96875,-0.125 z" />
    </g>
  </g>
  <g
     inkscape:label="text"
     inkscape:groupmode="layer"
     id="layer1"
     transform="translate(0,-1036.3622)"
     style="display:inline">
    <text
       xml:space="preserve"
       style="font-size:6.53898144px;font-style:normal;font-weight:bold;line-height:125%;letter-spacing:0px;word-spacing:0px;fill:#ff8000;fill-opacity:1;stroke:none;font-family:Sans;-inkscape-font-specification:Sans Bold"
       x="1.0217896"
       y="1008.5706"
       id="text2995"
       sodipodi:linespacing="125%"
       transform="scale(0.96573308,1.0354828)"><tspan
         sodipodi:role="line"
         id="tspan2997"
         x="1.0217896"
         y="1008.5706"
         style="-inkscape-font-specification:DejaVu Sans Bold;font-family:DejaVu Sans;font-weight:bold;font-style:normal;font-stretch:normal;font-variant:normal">VRC</tspan></text>
    <text
       xml:space="preserve"
       style="font-size:6.53898144px;font-style:normal;font-weight:bold;line-height:125%;letter-spacing:0px;word-spacing:0px;fill:#ff8000;fill-opacity:1;stroke:none;font-family:Sans;-inkscape-font-specification:Sans Bold"
       x="5.7968545"
       y="1014.2622"
       id="text2995-7"
       sodipodi:linespacing="125%"
       transform="scale(0.96573308,1.0354828)"><tspan
         sodipodi:role="line"
         id="tspan2997-9"
         x="5.7968545"
         y="1014.2622"
         style="-inkscape-font-specification:DejaVu Sans Bold;font-family:DejaVu Sans;font-weight:bold;font-style:normal;font-stretch:normal;font-variant:normal">7</tspan></text>
  </g>
</svg>
